<?xml version="1.0" encoding="utf-8"?>
<svg viewBox="0 0 32 32" fill="none" xmlns="http://www.w3.org/2000/svg">
  <circle cx="16" cy="16" r="15.922" fill="#8892BF" style=""/>
  <path d="M 14.225 9.176 L 16.136 9.176 L 15.595 12.047 L 17.313 12.047 C 18.254 12.067 18.955 12.277 19.416 12.678 C 19.888 13.079 20.027 13.841 19.832 14.963 L 18.905 19.968 L 16.966 19.968 L 17.852 15.189 C 17.945 14.687 17.917 14.332 17.77 14.122 C 17.622 13.911 17.304 13.806 16.814 13.806 L 15.277 13.79 L 14.142 19.968 L 12.231 19.968 L 14.225 9.176 Z" fill="white" style=""/>
  <path fill-rule="evenodd" clip-rule="evenodd" d="M 5.47 12.047 L 9.181 12.047 C 10.269 12.057 11.058 12.398 11.548 13.07 C 12.037 13.74 12.199 14.657 12.033 15.82 C 11.968 16.351 11.826 16.872 11.603 17.383 C 11.392 17.893 11.096 18.354 10.717 18.765 C 10.256 19.287 9.762 19.617 9.236 19.758 C 8.71 19.898 8.165 19.968 7.603 19.968 L 5.941 19.968 L 5.414 22.824 L 3.491 22.824 L 5.47 12.047 Z M 6.259 18.27 L 7.087 13.775 L 7.367 13.775 C 7.469 13.775 7.575 13.77 7.685 13.76 C 8.424 13.75 9.037 13.826 9.526 13.986 C 10.025 14.146 10.192 14.753 10.025 15.805 C 9.822 17.057 9.425 17.789 8.835 17.999 C 8.244 18.199 7.505 18.294 6.619 18.284 L 6.426 18.284 C 6.37 18.284 6.314 18.279 6.259 18.27 Z" fill="white" style=""/>
  <path fill-rule="evenodd" clip-rule="evenodd" d="M 25.594 12.047 L 21.884 12.047 L 19.904 22.824 L 21.828 22.824 L 22.355 19.968 L 24.016 19.968 C 24.579 19.968 25.124 19.898 25.65 19.758 C 26.176 19.617 26.669 19.287 27.131 18.765 C 27.51 18.354 27.805 17.893 28.017 17.383 C 28.239 16.872 28.382 16.351 28.447 15.82 C 28.613 14.657 28.451 13.74 27.962 13.07 C 27.473 12.398 26.683 12.057 25.594 12.047 Z M 23.501 13.775 L 22.673 18.27 C 22.728 18.279 22.784 18.284 22.839 18.284 L 23.033 18.284 C 23.919 18.294 24.658 18.199 25.248 17.999 C 25.839 17.789 26.236 17.057 26.439 15.805 C 26.605 14.753 26.439 14.146 25.94 13.986 C 25.451 13.826 24.837 13.75 24.099 13.76 C 23.989 13.77 23.882 13.775 23.78 13.775 L 23.501 13.775 Z" fill="white" style=""/>
</svg>